# xmcd
#
# Track frame offsets: 
#        150
#        18006
#        37232
#        52061
#        73869
#        87267
#        102000
#        121121
#        142159
#        162882
#        185618
#        206181
#
# Disc length: 3032 seconds
#
# Revision: 0
# Processed by: cddbd v1.5.2PL0 Copyright (c) Steve Scherf et al.
# Submitted via: ExactAudioCopy v0.99pb5
#
DISCID=ad0bd60c
DTITLE=Lisa McLowry - Time Signatures
DYEAR=2010
DGENRE=Jazz
TTITLE0=Time Signatures
TTITLE1=Waiting For You
TTITLE2=Born Twice
TTITLE3=Roses For No Reason
TTITLE4=Powerful Day
TTITLE5=In A Word Why
TTITLE6=Won't Say Bye Bye
TTITLE7=Come Dancing
TTITLE8=Unconditional Surrender
TTITLE9=When The Phone Don't Ring
TTITLE10=Utopia
TTITLE11=When It Comes From The Heart
EXTD=
EXTT0=
EXTT1=
EXTT2=
EXTT3=
EXTT4=
EXTT5=
EXTT6=
EXTT7=
EXTT8=
EXTT9=
EXTT10=
EXTT11=
PLAYORDER=
